<mxfile host="app.diagrams.net" modified="2024-02-18T01:48:29.697Z" agent="Mozilla/5.0 (Windows NT 10.0; Win64; x64) AppleWebKit/537.36 (KHTML, like Gecko) Chrome/121.0.0.0 Safari/537.36 Edg/121.0.0.0" version="23.0.1" etag="NTfAXE4VE87Bgo-gB9ee" type="github">
  <diagram name="第 1 页" id="kWfqDm8GCmm_I-4odLk0">
    <mxGraphModel>
      <root>
        <mxCell id="0" />
        <mxCell id="1" parent="0" />
      </root>
    </mxGraphModel>
  </diagram>
</mxfile>
